# xmcd
# 
# Track frame offsets:
#     150
#     14461
#     29802
#     42906
#     58035
#     101455
#     116848
#     138048
#     152572
#     159873
#     180177
#     199609
#     216211
#     235332
#     256583
#     282328
# 
# Disc length: 4222
# 
# Revision: 2
# Processed by: cddbd v1.5.2PL0 Copyright (c) Steve Scherf et al.
# Submitted via: fre:ac v1.0.17
# 
DISCID=d1107c10
DTITLE=Various Artist - Klassik zum Kuchen
DYEAR=2002
DGENRE=
TTITLE0=Tschaikowsky - Der Nussknacker Op. 71 - Ouvertüre
TTITLE1=Brahms - Haydn-Variationen op. 56a  Variation VII
TTITLE2=Beethoven - Menuett Nr. 2 G-Dur
TTITLE3=Rossini - Bläserquartett Nr. 3 F-Dur - Allegretto
TTITLE4=Haydn - Klavierkonzert F-Dur Hob XVIII - Allegro
TTITLE5=Boccherini - Streichquartett E-Dur op. 13.5 - Menuett
TTITLE6=Mozart - Divertimento D-Dur KV 334 - Menuett
TTITLE7=Corelli - Streichersuite d-Moll - Giga
TTITLE8=Bach - Notenbüchlein der Anna Magdalena Bach - Menuett A-dur
TTITLE9=Dvorak - Amerik. Suite A-Dur op 986 - Moderato
TTITLE10=Schumann - Klarinettenromanze A-Dur op 94.2
TTITLE11=Prokofieff - Sinfonier Nr. 1 D-Dur op. 25 - Larghetto
TTITLE12=Händel - Concerto Grosse D-Dur op. 6.5 - Larghetto
TTITLE13=Molter - Concerto Pastorale G-Dur - Larghetto-Allegro-Larghetto
TTITLE14=Haydn - Streichquartett D-Dur op. 3.5 - Serenade
TTITLE15=Schubert - Rosamunde D 797 - Ballettmusik Nr. 2
EXTD=
EXTT0=
EXTT1=
EXTT2=
EXTT3=
EXTT4=
EXTT5=
EXTT6=
EXTT7=
EXTT8=
EXTT9=
EXTT10=
EXTT11=
EXTT12=
EXTT13=
EXTT14=
EXTT15=
PLAYORDER=
